<svg xmlns="http://www.w3.org/2000/svg" width="5rem" viewBox="0 0 63 63">
  <defs>
    <style>.cls-1{fill:#e1f2fd;}</style>
  </defs>
  <g id="Layer_2" data-name="Layer 2">
    <g id="Layer_1-2" data-name="Layer 1">
      <path id="Button--hot" class="cls-1" d="M31.5,63A31.49,31.49,0,0,1,9.23,9.23a31.51,31.51,0,0,1,51.29,10A31.53,31.53,0,0,1,43.76,60.52,31.13,31.13,0,0,1,31.5,63ZM21.93,15.63A11.25,11.25,0,0,0,10.55,26.77a1,1,0,0,0,0,.25c0,7.81,7,14.19,17.67,23.84l0,0,3,2.73,3-2.71.09-.08c10.6-9.64,17.61-16,17.61-23.81A11.26,11.26,0,0,0,40.8,15.63h-.24A12.42,12.42,0,0,0,31.24,20,12.4,12.4,0,0,0,21.93,15.63Z"/>
    </g>
  </g>
</svg>