<?xml version="1.0" encoding="utf-8"?>
<!-- Generator: Adobe Illustrator 23.0.6, SVG Export Plug-In . SVG Version: 6.00 Build 0)  -->
<svg version="1.1" id="Capa_1" xmlns="http://www.w3.org/2000/svg" xmlns:xlink="http://www.w3.org/1999/xlink" x="0px" y="0px"
	 viewBox="0 0 512 512" style="enable-background:new 0 0 512 512;" xml:space="preserve">
<style type="text/css">
	.st0{fill:#1E1E3A;}
</style>
<g>
	<g>
		<path class="st0" d="M276.6,256L437.7,94.8c5.7-5.7,5.7-14.9,0-20.6c-5.7-5.7-14.9-5.7-20.6,0L256,235.5L94.8,74.3
			c-5.7-5.7-14.9-5.7-20.6,0s-5.7,14.9,0,20.6L235.4,256L74.3,417.2c-5.7,5.7-5.7,14.9,0,20.6c2.8,2.8,6.6,4.3,10.3,4.3
			c3.7,0,7.4-1.4,10.3-4.3L256,276.6l161.2,161.2c2.8,2.8,6.6,4.3,10.3,4.3s7.4-1.4,10.3-4.3c5.7-5.7,5.7-14.9,0-20.6L276.6,256z"/>
	</g>
</g>
</svg>
